<svg width="32" height="32" viewBox="0 0 32 32" fill="none" xmlns="http://www.w3.org/2000/svg">
<rect width="32" height="32" rx="8" fill="#B0003A"/>
<path d="M10.2173 20V12.7273H14.9474V13.8317H11.5348V15.8061H14.7024V16.9105H11.5348V18.8956H14.9759V20H10.2173ZM16.2915 20V12.7273H19.0188C19.5775 12.7273 20.0463 12.8314 20.4251 13.0398C20.8062 13.2481 21.0939 13.5346 21.288 13.8991C21.4845 14.2614 21.5827 14.6733 21.5827 15.1349C21.5827 15.6013 21.4845 16.0156 21.288 16.3778C21.0915 16.7401 20.8015 17.0253 20.418 17.2337C20.0344 17.4396 19.5621 17.5426 19.0011 17.5426H17.1935V16.4595H18.8235C19.1502 16.4595 19.4177 16.4027 19.6261 16.2891C19.8344 16.1754 19.9883 16.0192 20.0877 15.8203C20.1895 15.6214 20.2404 15.393 20.2404 15.1349C20.2404 14.8769 20.1895 14.6496 20.0877 14.4531C19.9883 14.2566 19.8332 14.1039 19.6225 13.995C19.4142 13.8838 19.1455 13.8281 18.8164 13.8281H17.609V20H16.2915Z" fill="white"/>
</svg>
