<svg width="32" height="32" viewBox="0 0 32 32" fill="none" xmlns="http://www.w3.org/2000/svg">
<rect width="32" height="32" rx="8" fill="#64748B"/>
<path d="M10.8597 15.6268H9.93004C9.90353 15.4743 9.85464 15.3393 9.78338 15.2216C9.71212 15.1023 9.62346 15.0012 9.5174 14.9183C9.41134 14.8355 9.29036 14.7733 9.15447 14.7319C9.02024 14.6888 8.87524 14.6673 8.71946 14.6673C8.44271 14.6673 8.19744 14.7369 7.98366 14.8761C7.76989 15.0136 7.60251 15.2158 7.48153 15.4826C7.36056 15.7478 7.30007 16.0717 7.30007 16.4545C7.30007 16.844 7.36056 17.1721 7.48153 17.4389C7.60417 17.7041 7.77154 17.9046 7.98366 18.0405C8.19744 18.1747 8.44188 18.2418 8.71697 18.2418C8.86944 18.2418 9.01196 18.2219 9.14453 18.1822C9.27876 18.1407 9.39891 18.0803 9.50497 18.0007C9.61269 17.9212 9.70301 17.8234 9.77592 17.7074C9.8505 17.5914 9.90187 17.4588 9.93004 17.3097L10.8597 17.3146C10.8249 17.5566 10.7495 17.7836 10.6335 17.9957C10.5192 18.2079 10.3692 18.3951 10.1836 18.5575C9.99799 18.7183 9.7809 18.8442 9.53232 18.9354C9.28374 19.0249 9.00781 19.0696 8.70455 19.0696C8.2571 19.0696 7.85772 18.966 7.50639 18.7589C7.15507 18.5517 6.87831 18.2526 6.67614 17.8615C6.47396 17.4704 6.37287 17.0014 6.37287 16.4545C6.37287 15.906 6.47479 15.437 6.67862 15.0476C6.88246 14.6565 7.16004 14.3574 7.51136 14.1502C7.86269 13.9431 8.26042 13.8395 8.70455 13.8395C8.98793 13.8395 9.25142 13.8793 9.49503 13.9588C9.73864 14.0384 9.95573 14.1552 10.1463 14.3093C10.3369 14.4618 10.4935 14.649 10.6161 14.8711C10.7404 15.0915 10.8216 15.3434 10.8597 15.6268ZM12.2965 19H11.3121L13.1044 13.9091H14.2429L16.0376 19H15.0533L13.6935 14.9531H13.6538L12.2965 19ZM12.3288 17.0039H15.0135V17.7447H12.3288V17.0039ZM16.7082 19V13.9091H18.6173C19.0084 13.9091 19.3365 13.977 19.6017 14.1129C19.8685 14.2488 20.0698 14.4394 20.2057 14.6847C20.3432 14.9283 20.412 15.2125 20.412 15.5373C20.412 15.8638 20.3424 16.1471 20.2032 16.3874C20.0657 16.6261 19.8627 16.8108 19.5942 16.9418C19.3257 17.071 18.9959 17.1357 18.6048 17.1357H17.2451V16.37H18.4806C18.7093 16.37 18.8965 16.3385 19.0423 16.2756C19.1882 16.2109 19.2959 16.1173 19.3655 15.9947C19.4368 15.8704 19.4724 15.7179 19.4724 15.5373C19.4724 15.3567 19.4368 15.2025 19.3655 15.0749C19.2942 14.9457 19.1857 14.8479 19.0399 14.7816C18.894 14.7137 18.7059 14.6797 18.4756 14.6797H17.6304V19H16.7082ZM19.3382 16.6932L20.5985 19H19.5693L18.3314 16.6932H19.3382ZM22.9861 19H21.2609V13.9091H23.0209C23.5263 13.9091 23.9605 14.011 24.3234 14.2148C24.688 14.417 24.9681 14.7079 25.1636 15.0874C25.3592 15.4669 25.4569 15.9209 25.4569 16.4496C25.4569 16.9799 25.3583 17.4356 25.1611 17.8168C24.9656 18.1979 24.683 18.4904 24.3135 18.6942C23.9456 18.8981 23.5031 19 22.9861 19ZM22.1831 18.2021H22.9413C23.296 18.2021 23.5918 18.1374 23.8287 18.0082C24.0657 17.8772 24.2439 17.6825 24.3632 17.424C24.4825 17.1638 24.5422 16.839 24.5422 16.4496C24.5422 16.0601 24.4825 15.737 24.3632 15.4801C24.2439 15.2216 24.0674 15.0285 23.8337 14.9009C23.6017 14.7717 23.3134 14.707 22.9687 14.707H22.1831V18.2021Z" fill="white"/>
</svg>
